# xmcd CD database file
#
# Track frame offsets:
#	150
#	27248
#	64638
#	100903
#	117025
#	145140
#	191768
#	210429
#	219549
#
# Disc length: 3387 seconds
#
# Revision: 0
# Processed by: cddbd v1.5.2PL0 Copyright (c) Steve Scherf et al.
# Submitted via: CDex 1.70beta2
#
DISCID=7d0d3909
DTITLE=Various Artist - The Best of Polish Smooth Jazz Vol.3 - CD 1
DYEAR=2006
DGENRE=Jazz
TTITLE0=Tadeusz Sudnik with Tomasz Stańko group - Euforila
TTITLE1=Tadeusz Sudnik with P. Prochnowski - Canadada
TTITLE2=Tadeusz Sudnik with A.Pierończyk - Pierro
TTITLE3=Tadeusz Sudnik with A. Korecki - Korek
TTITLE4=Tadeusz Sudnik with T. Duda - Ta Du Da
TTITLE5=Tadeusz Sudnik with J. Pęczak - For J.S.
TTITLE6=Tadeusz Sudnik with A. Stolarz - Symphonix
TTITLE7=Tadeusz Sudnik with I. Czajkowska - Cats in space
TTITLE8=Tadeusz Sudnik with Mitan - 7'37"
EXTD=YEAR: 2006
EXTT0=
EXTT1=
EXTT2=
EXTT3=
EXTT4=
EXTT5=
EXTT6=
EXTT7=
EXTT8=
PLAYORDER=
